<svg xmlns="http://www.w3.org/2000/svg" width="1920" height="1080" viewBox="0 0 1920 1080">
  <defs>
    <linearGradient id="g" x1="0" y1="0" x2="1" y2="1">
      <stop offset="0%" stop-color="#020408"/>
      <stop offset="48%" stop-color="#08192f"/>
      <stop offset="100%" stop-color="#130b2d"/>
    </linearGradient>
    <radialGradient id="r1" cx="30%" cy="20%" r="60%">
      <stop offset="0%" stop-color="#00f5ff" stop-opacity="0.22"/>
      <stop offset="100%" stop-color="#00f5ff" stop-opacity="0"/>
    </radialGradient>
    <radialGradient id="r2" cx="76%" cy="74%" r="55%">
      <stop offset="0%" stop-color="#ff006e" stop-opacity="0.18"/>
      <stop offset="100%" stop-color="#ff006e" stop-opacity="0"/>
    </radialGradient>
  </defs>
  <rect width="1920" height="1080" fill="url(#g)"/>
  <rect width="1920" height="1080" fill="url(#r1)"/>
  <rect width="1920" height="1080" fill="url(#r2)"/>
  <g opacity="0.18" stroke="#00f5ff" fill="none">
    <path d="M0 140H1920M0 280H1920M0 420H1920M0 560H1920M0 700H1920M0 840H1920M0 980H1920"/>
    <path d="M160 0V1080M320 0V1080M480 0V1080M640 0V1080M800 0V1080M960 0V1080M1120 0V1080M1280 0V1080M1440 0V1080M1600 0V1080M1760 0V1080"/>
  </g>
</svg>